# xmcd CD database file
# Copyright (C) 1993-1999 CDDB, Inc.
#
# Track frame offsets:
#	150
#	10693
#	23313
#	38198
#	49295
#	67383
#	85206
#	100678
#	119073
#	145593
#	161048
#	187449
#	201642
#	214985
#	226533
#	240434
#	254574
#	267805
#	281590
#	295456
#	308814
#	322347
#	334610
#
# Disc length: 4594
#
# Revision: 1
# Processed by: cddbd v1.5.1PL2 Copyright (c) Steve Scherf et al.
# Submitted via: CoolCD_Studio 1.4
#
DISCID=6211f017
DTITLE=Louis Armstrong - The Definitive Collection
DYEAR=2006
DGENRE=
TTITLE0=What A Wonderful World
TTITLE1=Cabaret
TTITLE2=Dream A Little Dream Of Me
TTITLE3=Hello, Dolly
TTITLE4=Our Love Is Here To Stay (Duet Ella Fitzgerald)
TTITLE5=I Gotta Right To Sing The Blues
TTITLE6=Georgia On My Mind
TTITLE7=When Your Smiling  (The Whole World Smiles With You)
TTITLE8=On The Sunny Side Of The Street
TTITLE9=Mack The Knife
TTITLE10=Basin Street Blues
TTITLE11=Someday (You'll Be Sorry)
TTITLE12=It Takes Two To Tango)
TTITLE13=Gone Fishin' (Duet w Bing Crosby)
TTITLE14=A Kiss To Build A Dream On
TTITLE15=That Lucky Old Sun
TTITLE16=Blueberry Hill
TTITLE17=Do You Know What It Means To Miss New Orleans
TTITLE18=I Want A Little Girl
TTITLE19=Ain't Misehavin'
TTITLE20=Struttin' With Some Barbeque
TTITLE21=When The Saints Go Marching In
TTITLE22=When Its Sleepy Time Down South
EXTD=
EXTT0=
EXTT1=
EXTT2=
EXTT3=
EXTT4=
EXTT5=
EXTT6=
EXTT7=
EXTT8=
EXTT9=
EXTT10=
EXTT11=
EXTT12=
EXTT13=
EXTT14=
EXTT15=
EXTT16=
EXTT17=
EXTT18=
EXTT19=
EXTT20=
EXTT21=
EXTT22=
PLAYORDER=
